<svg xmlns="http://www.w3.org/2000/svg" xmlns:xlink="http://www.w3.org/1999/xlink" width="800" height="500" version="1.0"><path fill="#74acdf" d="M0 0h800v500H0z"/><path fill="#fff" d="M0 166.7h800v166.7H0z"/><g id="c"><path id="a" fill="#f6b40e" stroke="#85340a" stroke-width="1.1" d="m396.8 251.3 28.5 62s.5 1.2 1.3.9c.8-.4.3-1.6.3-1.6l-23.7-64m-.7 24.2c-.4 9.4 5.4 14.6 4.7 23-.8 8.5 3.8 13.2 5 16.5 1 3.3-1.2 5.2-.3 5.7 1 .5 3-2.1 2.4-6.8-.7-4.6-4.2-6-3.4-16.3.8-10.3-4.2-12.7-3-22"/><use xlink:href="#a" transform="rotate(22.5 400 250)"/><use xlink:href="#a" transform="rotate(45 400 250)"/><use xlink:href="#a" transform="rotate(67.5 400 250)"/><path id="b" fill="#85340a" d="M404.3 274.4c.5 9 5.6 13 4.6 21.3 2.2-6.5-3.1-11.6-2.8-21.2m-7.7-23.8 19.5 42.6-16.3-43.9"/><use xlink:href="#b" transform="rotate(22.5 400 250)"/><use xlink:href="#b" transform="rotate(45 400 250)"/><use xlink:href="#b" transform="rotate(67.5 400 250)"/></g><use xlink:href="#c" transform="rotate(90 400 250)"/><use xlink:href="#c" transform="rotate(180 400 250)"/><use xlink:href="#c" transform="rotate(270 400 250)"/><circle cx="400" cy="250" r="27.8" fill="#f6b40e" stroke="#85340a" stroke-width="1.5"/><path id="h" fill="#843511" d="M409.5 244c-2 0-3.7.9-4.8 2.6 2.1 2 6.8 2.1 10-.2a7.3 7.3 0 0 0-5.2-2.3zm0 .5c1.8 0 3.5.8 3.8 1.7-2.2 2.3-5.6 2.1-7.7.4.9-1.5 2.4-2 3.8-2.1z"/><use xlink:href="#d" transform="matrix(-1 0 0 1 800.3 0)"/><use xlink:href="#e" transform="matrix(-1 0 0 1 800.3 0)"/><use xlink:href="#f" transform="translate(18.9)"/><use xlink:href="#g" transform="matrix(-1 0 0 1 800.3 0)"/><path fill="#85340a" d="M395.8 253.8a2 2 0 1 0 1.9 3 4 4 0 0 0 2.3.7h.3a4 4 0 0 0 2.3-.7c.3.6.9.9 1.5.9a2 2 0 0 0 .4-3.9c.5.2.8.7.8 1.3a1.3 1.3 0 0 1-2.5 0c-.2.4-1 1.7-2.7 1.7a3.2 3.2 0 0 1-2.6-1.7c0 .7-.6 1.2-1.3 1.2-.7 0-1.3-.5-1.3-1.2 0-.6.3-1 .9-1.3zM397.8 259.5c-2.1 0-3 2-4.9 3.2 1.1-.4 2-1.2 3.4-2 1.5-1 2.8.1 3.7.1.8 0 2.1-1 3.6-.2 1.5.9 2.4 1.7 3.5 2.1-2-1.2-2.8-3.2-5-3.2-.4 0-1.3.3-2.1.7-.9-.4-1.7-.7-2.2-.7z"/><path fill="#85340a" d="m397.1 262-3.5.7c3.8-.8 4.7.5 6.4.5 1.7 0 2.6-1.3 6.4-.5-4.3-1.2-5.1-.4-6.4-.4-.8 0-1.5-.3-2.9-.2z"/><path fill="#85340a" d="M393.8 262.7h-.9c4.5.5 2.4 3 7 3h.1c4.7 0 2.6-2.5 7-3-4.6-.4-3.2 2.4-7 2.4-3.6 0-2.5-2.4-6.3-2.4z"/><path fill="#85340a" d="M403.9 269.7a3.8 3.8 0 0 0-7.7 0 4 4 0 0 1 7.7 0z"/><path id="e" fill="#85340a" d="M382.7 244c5-4.3 11.1-4.9 14.6-1.7a8.4 8.4 0 0 1 1.6 3.6c.4 2.4-.4 5-2.3 7.7.2 0 .7.2.9.5 1.7-3.3 2.3-6.6 1.7-9.8-.1-.8-.4-1.6-.7-2.4-4.7-3.9-11-4.3-15.8 2.1z"/><path id="d" fill="#85340a" d="M390.4 242.7c2.8 0 3.4.7 4.7 1.8 1.3 1 2 .8 2.2 1 .2.2 0 .9-.5.7s-1.3-.7-2.5-1.8c-1.3-1-2.6-1-3.9-1-3.8 0-6 3.2-6.4 3-.4-.2 2.1-3.7 6.4-3.7z"/><use xlink:href="#h" transform="translate(-19.2)"/><circle id="f" cx="390.5" cy="246.2" r="1.9" fill="#85340a"/><path id="g" fill="#85340a" d="M385.3 247.4c3.6 2.8 7.3 2.6 9.4 1.3 2.1-1.3 2.1-1.7 1.7-1.7-.4 0-.9.4-2.6 1.3-1.7.9-4.2.9-8.5-.9z"/></svg>